<?xml version="1.0" encoding="utf-8"?>
<!-- Generator: Adobe Illustrator 24.0.0, SVG Export Plug-In . SVG Version: 6.00 Build 0)  -->
<svg version="1.1" id="Layer_1" xmlns="http://www.w3.org/2000/svg" xmlns:xlink="http://www.w3.org/1999/xlink" x="0px" y="0px"
	 viewBox="0 0 30 30" style="enable-background:new 0 0 30 30;" xml:space="preserve">
<style type="text/css">
	.st0{display:none;fill:#FFFFFF;}
</style>
<path d="M18.3,21.8L18.3,21.8c0,0-0.7-2.5-1.7-5.5c-1.2-0.3-2.4-0.7-3.4-1.4c0.3,0.9,0.4,1.6,0.5,1.8c0.4,2.1-0.7,3.9-0.9,4.3
	c-0.9,1.2-0.9,3,0.2,4.1c1.2,1.2,3.2,1.3,4.5,0.1C18.4,24.2,18.7,22.9,18.3,21.8z M16.7,24.2c-0.7,0.7-1.9,0.7-2.7,0
	c-0.7-0.7-0.7-1.9,0-2.7s1.9-0.7,2.7,0C17.5,22.3,17.5,23.5,16.7,24.2z"/>
<path d="M20.7,14.1c-0.5,0.2-2.4,1.1-4.4,0.5C15.5,14.3,4.1,9.6,4.1,9.6S4,11,4,11.4c0,0.4,0.5,1.2,1.2,1.5s15.7,6.7,15.7,6.7l0,0
	c1.1,0.5,2.4,0.4,3.4-0.4c1.3-1.1,1.5-3.1,0.4-4.4C23.7,13.5,22,13.2,20.7,14.1z M23.5,18.3c-0.8,0.7-2,0.5-2.7-0.3
	c-0.7-0.8-0.5-2,0.3-2.7c0.8-0.7,2-0.5,2.7,0.3C24.4,16.4,24.3,17.6,23.5,18.3z"/>
<path d="M13.4,5.5c-0.2-0.7-0.9-1.3-1.3-1.4C11.7,4,10.2,4,10.2,4l2.2,7.6c0,0,3.2,1.3,3.2,1.3C14.5,9.3,13.5,5.8,13.4,5.5z"/>
<circle class="st0" cx="14.8" cy="15.3" r="0.6"/>
</svg>
