<?xml version="1.0" encoding="utf-8"?>
<!-- Generator: Adobe Illustrator 24.0.2, SVG Export Plug-In . SVG Version: 6.00 Build 0)  -->
<svg version="1.1" xmlns="http://www.w3.org/2000/svg" xmlns:xlink="http://www.w3.org/1999/xlink" x="0px" y="0px"
	 viewBox="0 0 100 100" style="enable-background:new 0 0 100 100;" xml:space="preserve">
<style type="text/css">
	.st0{display:none;}
	.st1{display:inline;fill:#8A4C4C;stroke:#13A6D4;stroke-miterlimit:10;}
	.st2{display:inline;fill:none;stroke:#13A6D4;stroke-width:14;stroke-linecap:round;stroke-miterlimit:10;}
	.st3{display:inline;fill:none;stroke:#16AFD3;stroke-miterlimit:10;}
	.st4{display:inline;fill:#13C1D3;stroke:#13C1D3;stroke-miterlimit:10;}
	.st5{display:inline;fill:none;stroke:#13C1D3;stroke-miterlimit:10;}
	.st6{stroke:#13C1D3;stroke-miterlimit:10;}
	.st7{display:inline;fill:#13C1D3;}
	.st8{display:inline;fill:#12A3D3;}
	.st9{display:inline;fill:#8A4C4C;}
	.st10{display:none;fill:#30B3D6;}
	.st11{fill:#30B3D6;}
	.st12{display:inline;fill:none;stroke:#12A3D3;stroke-width:3;stroke-miterlimit:10;}
	.st13{display:inline;fill:none;stroke:#12A3D3;stroke-miterlimit:10;}
	.st14{display:inline;fill:none;stroke:#12A3D3;stroke-width:2;stroke-miterlimit:10;}
</style>
<g id="Layer_3" class="st0">
	<rect x="-21.6" y="-14" class="st1" width="156" height="153"/>
</g>
<g id="Layer_2" class="st0">
	<line class="st2" x1="48.9" y1="6.5" x2="48.9" y2="109.5"/>
	
		<image style="display:inline;overflow:visible;" width="1204" height="16" xlink:href="2325E439.jpg"  transform="matrix(0.9999 0 0 0.9999 -8138.564 -8128.019)">
	</image>
	<line class="st2" x1="100.4" y1="58" x2="-2.6" y2="58"/>
	<line class="st3" x1="8.4" y1="8" x2="8.4" y2="18"/>
	<line class="st3" x1="13.4" y1="13" x2="3.4" y2="13"/>
</g>
<g id="Layer_1">
	<g id="Layer_5" class="st0">
		<path class="st4" d="M54.6,15l-16-0.1l0-7c0,0,3.5-3,8-3c4.5,0,8,3,8,3L54.6,15z"/>
		<polygon class="st5" points="38.6,14.9 38.2,99.9 46.2,113 54.2,100 54.6,15 		"/>
		<line class="st6" x1="43" y1="15" x2="42.6" y2="99.5"/>
		<line class="st6" x1="50.3" y1="15" x2="49.9" y2="99.5"/>
		
			<rect x="48.4" y="15.5" transform="matrix(-1 -1.224647e-16 1.224647e-16 -1 98.872 115.4621)" class="st7" width="2" height="84.5"/>
	</g>
	<g id="Layer_4" class="st0">
		<path class="st8" d="M81.6,23.6L70.4,12.3l5-4.9c0,0,4.6,0.4,7.8,3.6c3.2,3.2,3.5,7.8,3.5,7.8L81.6,23.6z"/>
		<polygon class="st8" points="26.2,79.4 25.4,74.5 20.5,73.8 19.8,68.8 14.8,68.1 66.5,16.5 77.8,27.8 		"/>
		<polygon class="st8" points="16.3,85.1 11.7,80.5 14.7,70.8 12.7,68.8 6.4,87.9 		"/>
		
			<rect x="48.4" y="13.2" transform="matrix(-0.7071 -0.7071 0.7071 -0.7071 50.3011 118.7756)" class="st9" width="2.7" height="71.4"/>
	</g>
	<g id="Layer_6">
		<path class="st10" d="M91.4,21.8L77.7,8l6-6c0,0,5.6,0.5,9.4,4.3c3.9,3.9,4.3,9.5,4.3,9.5L91.4,21.8z"/>
		<polygon class="st10" points="8.5,80.5 20.8,91.6 3.4,97.4 		"/>
		<polygon class="st10" points="83.7,23.8 27.9,79.7 25.4,77.2 81.2,21.4 72.9,13.1 10.2,75.9 16.9,77.2 18.1,83.3 23,84.5 
			23.9,89.6 86.7,26.9 		"/>
		<path class="st11" d="M88.2,14.8c-1.4,0-23.8,0-23.8,0s0-7,0-8.4s-0.9-3.7-2.8-3.7c-1.9,0-23.8,0-25.2,0c-1.4,0-2.3,1.4-2.3,2.3
			s0,9.3,0,9.3s-21.9,0-23.8,0c-2.3,0-2.8,2.8-2.8,4.2c0,1.4,0.9,3.7,2.3,3.7s5.6,0,5.6,0s3.7,69,3.7,70s1.4,3.7,1.9,3.7
			c0.9,0,53.7,0,55.5,0s3.3-2.3,3.3-3.7c0-0.9,3.3-69.5,3.3-69.5s3.7,0,5.1,0s2.8-2.3,2.8-4.2C91.5,17.1,89.6,14.8,88.2,14.8z
			 M41.6,10.6h14.9v4.2H41.6V10.6z M68.6,87.6h-9.3l1.4-58.8c0,0-0.5-1.4-1.9-1.4c-0.9,0-2.3,0.5-2.3,1.4c0,0.5-1.9,58.8-1.9,58.8
			H43.5c0,0-1.9-57.9-1.9-58.8c0-0.9-0.9-1.4-1.9-1.4s-1.9,0.5-1.9,1.4c0,0.9,1.4,58.8,1.4,58.8H26.2l-3.3-64.8h49L68.6,87.6z"/>
	</g>
	<g id="Layer_7" class="st0">
		<path class="st8" d="M91.7,32.4L80.4,21l5-4.9c0,0,4.6,0.4,7.8,3.6c3.2,3.2,3.5,7.8,3.5,7.8L91.7,32.4z"/>
		<polygon class="st8" points="20.3,89.3 25.4,93 17.9,97.2 		"/>
		<polyline class="st12" points="30.4,78 31.4,83 35.4,84 36.2,88.2 87.8,36.6 85.4,34.1 83.3,32.1 76.5,25.2 		"/>
		<polyline class="st13" points="76.5,25.2 24.9,76.9 30.4,78 		"/>
		<line class="st12" x1="38.7" y1="78.5" x2="84.3" y2="32.9"/>
		<line class="st13" x1="23.9" y1="77.5" x2="17.9" y2="97.5"/>
		<line class="st14" x1="17.9" y1="96.5" x2="35.9" y2="88.5"/>
	</g>
	
		<image style="display:none;overflow:visible;" width="290" height="74" xlink:href="2325E43B.jpg"  transform="matrix(1 0 0 1 -91.564 102.981)">
	</image>
</g>
</svg>
