<?xml version="1.0" encoding="utf-8"?>
<!-- Generator: Adobe Illustrator 24.0.0, SVG Export Plug-In . SVG Version: 6.00 Build 0)  -->
<svg version="1.1" id="Layer_1" xmlns="http://www.w3.org/2000/svg" xmlns:xlink="http://www.w3.org/1999/xlink" x="0px" y="0px"
	 viewBox="0 0 18.2 20" style="enable-background:new 0 0 18.2 20;" xml:space="preserve">
<style type="text/css">
	.st0{fill:#FFFFFF;}
</style>
<path class="st0" d="M17.5,2.6c-0.3,0-5.1,0-5.1,0s0-1.5,0-1.8S12.2,0,11.8,0S6.7,0,6.4,0C6.1,0,5.9,0.3,5.9,0.5s0,2,0,2
	s-4.7,0-5.1,0c-0.5,0-0.6,0.6-0.6,0.9s0.2,0.8,0.5,0.8c0.3,0,1.2,0,1.2,0s0.8,14.8,0.8,15S3,20,3.1,20c0.2,0,11.5,0,11.9,0
	c0.4,0,0.7-0.5,0.7-0.8c0-0.2,0.7-14.9,0.7-14.9s0.8,0,1.1,0s0.6-0.5,0.6-0.9C18.2,3.1,17.8,2.6,17.5,2.6z M7.5,1.7h3.2v0.9H7.5V1.7
	z M13.3,18.2h-2l0.3-12.6c0,0-0.1-0.3-0.4-0.3c-0.2,0-0.5,0.1-0.5,0.3c0,0.1-0.4,12.6-0.4,12.6H7.9c0,0-0.4-12.4-0.4-12.6
	c0-0.2-0.2-0.3-0.4-0.3c-0.2,0-0.4,0.1-0.4,0.3C6.7,5.8,7,18.2,7,18.2H4.2L3.5,4.3H14L13.3,18.2z"/>
</svg>
