<?xml version="1.0" encoding="utf-8"?>
<!-- Generator: Adobe Illustrator 24.0.0, SVG Export Plug-In . SVG Version: 6.00 Build 0)  -->
<svg version="1.1" id="Layer_1" xmlns="http://www.w3.org/2000/svg" xmlns:xlink="http://www.w3.org/1999/xlink" x="0px" y="0px"
	 viewBox="0 0 30 30" style="enable-background:new 0 0 30 30;" xml:space="preserve">
<style type="text/css">
	.st0{display:none;}
	.st1{display:inline;fill:#636363;}
	.st2{fill:#FFFFFF;}
	.st3{display:none;fill:#FFFFFF;}
	.st4{display:none;fill:none;stroke:#FFFFFF;stroke-miterlimit:10;}
	.st5{display:none;fill:#FCFCFC;}
	.st6{display:none;fill:#636363;}
</style>
<g id="Layer_2_1_" class="st0">
	<rect x="-24.8" y="-22.7" class="st1" width="89.4" height="84.1"/>
</g>
<g id="Layer_1_1_">
	<g>
		<path class="st2" d="M16.3,7c-0.3,0-0.6,0.2-0.6,0.4c0,0.1,0,1.4-0.1,3.2h1.1l0.1-3.2C16.8,7.4,16.6,7,16.3,7z"/>
		<path class="st2" d="M12.4,25h-0.5c0,0-0.6-17.4-0.6-17.6c0-0.2-0.3-0.4-0.5-0.4c-0.3,0-0.6,0.2-0.6,0.4c0,0.2,0.5,16.3,0.5,17.6
			c-1.4,0-3-0.3-3.8-0.6C6.6,24.3,6.6,24,6.6,24L5.6,5.7h14.3l-0.2,4.9h3.3c0.1-2.8,0.3-4.9,0.3-4.9s1,0,1.5,0s0.8-0.6,0.8-1.1
			S25,3.4,24.6,3.4c-0.5,0-6.7,0-6.7,0s0-2,0-2.4c0-0.4-0.3-1-0.9-1s-6.7,0-7,0C9.6,0,9.2,0.4,9.2,0.7s0,2.7,0,2.7s-6.2,0-6.8,0
			S1.6,4.2,1.6,4.6s0.3,1.1,0.6,1c0.4,0,1.6,0,1.6,0s1,19.5,1,19.8s0.5,0.9,0.7,0.9c0.1,0,3.3,1,6.8,1C12.4,27.3,12.4,25,12.4,25z
			 M11.4,2.3h4.2v1.2h-4.2C11.4,3.4,11.4,2.3,11.4,2.3z"/>
	</g>
	<path class="st3" d="M39,18.8v23.5c0,1-0.8,1.8-1.8,1.8H15.6c-1,0-1.8-0.8-1.8-1.8V12.5c0-1,0.8-1.8,1.8-1.8h15.9"/>
	<path class="st4" d="M38.3,18.5v22.8c0,1-0.8,1.8-1.8,1.8H15.6c-1,0-1.8-0.8-1.8-1.8V12.4c0-1,0.8-1.8,1.8-1.8H31"/>
	<path class="st2" d="M23.9,12.6h-8.3c-0.5,0-0.9,0.4-0.9,0.9V29c0,0.5,0.4,1,0.9,1h11.2c0.5,0,1-0.4,1-1V16.9L23.9,12.6z
		 M25.9,28.8h-9.3c-0.4,0-0.8-0.4-0.8-0.8V14.6c0-0.4,0.4-0.8,0.8-0.8h6.6v2.7c0,0.6,0.5,1.1,1.1,1.1h2.4V28
		C26.7,28.5,26.3,28.8,25.9,28.8z"/>
	<path class="st5" d="M39.2,18.4v23.9c0,1-0.8,1.9-1.9,1.9h-22c-1,0-1.9-0.8-1.9-1.9V12c0-1,0.8-1.9,1.9-1.9h16.3"/>
	<path class="st6" d="M37,19.6v20.7c0,0.9-0.7,1.6-1.5,1.6H17.2c-0.9,0-1.6-0.7-1.6-1.6V14c0-0.9,0.7-1.6,1.6-1.6h13.5"/>
	<path class="st3" d="M39,19.9h-6.7c-1.2,0-2.2-1-2.2-2.2v-7.5"/>
</g>
</svg>
