<?xml version="1.0" encoding="utf-8"?>
<!-- Generator: Adobe Illustrator 24.0.0, SVG Export Plug-In . SVG Version: 6.00 Build 0)  -->
<svg version="1.1" xmlns="http://www.w3.org/2000/svg" xmlns:xlink="http://www.w3.org/1999/xlink" x="0px" y="0px"
	 viewBox="0 0 40 30" style="enable-background:new 0 0 40 30;" xml:space="preserve">
<style type="text/css">
	.st0{display:none;}
	.st1{display:inline;fill:#636363;}
	.st2{fill:#FFFFFF;}
</style>
<g id="Layer_3" class="st0">
	<rect x="-414.59" y="-388.58" class="st1" width="880.51" height="827.41"/>
</g>
<g id="Layer_18">
	<path class="st2" d="M16.73,20.74c0.97,1.81,5.7,3.53,11.21,3.53c5.66,0,10.43-1.8,11.21-3.68v5.29c0,2.14-5.02,4.07-11.21,4.07
		c-6.19,0-11.21-1.93-11.21-4.07L16.73,20.74"/>
	<path class="st2" d="M16.73,13.35c0.97,1.81,5.7,3.53,11.21,3.53c5.66,0,10.43-1.8,11.21-3.68v5.29c0,2.14-5.02,4.07-11.21,4.07
		c-6.19,0-11.21-1.93-11.21-4.07L16.73,13.35"/>
	<path class="st2" d="M16.73,5.96c0.97,1.81,5.7,3.53,11.21,3.53c5.66,0,10.43-1.8,11.21-3.68v5.29c0,2.14-5.02,4.07-11.21,4.07
		c-6.19,0-11.21-1.93-11.21-4.07L16.73,5.96"/>
	<path class="st2" d="M39.01,3.92c0,2.12-4.97,4.03-11.11,4.03c-6.13,0-11.11-1.91-11.11-4.03c0-2.12,4.97-3.84,11.11-3.84
		C34.04,0.08,39.01,1.8,39.01,3.92z"/>
</g>
<g id="Layer_2">
	<polygon class="st2" points="9.83,14.35 0.5,14.25 0.46,18.84 9.79,18.95 9.75,22.45 15.61,16.71 9.87,10.85 	"/>
</g>
</svg>
