<?xml version="1.0" encoding="utf-8"?>
<!-- Generator: Adobe Illustrator 24.0.2, SVG Export Plug-In . SVG Version: 6.00 Build 0)  -->
<svg version="1.1" id="Layer_1" xmlns="http://www.w3.org/2000/svg" xmlns:xlink="http://www.w3.org/1999/xlink" x="0px" y="0px"
	 viewBox="0 0 50 50" style="enable-background:new 0 0 50 50;" xml:space="preserve">
<style type="text/css">
	.st0{display:none;}
	.st1{display:inline;}
	.st2{display:none;fill:none;stroke:#FFFFFF;stroke-miterlimit:10;}
	.st3{fill:#12A3D3;}
</style>
<g class="st0">
	<path class="st1" d="M54-44h21c6.6,0,12,5.4,12,12v21"/>
</g>
<rect x="54" y="-44" class="st2" width="33" height="33"/>
<path class="st3" d="M36.7,0H4.8C2.2,0,0,2.2,0,4.8v40.3C0,47.8,2.2,50,4.8,50h40.3c2.7,0,4.8-2.2,4.8-4.8V13.3L36.7,0z M25,44
	c-4.2,0-7.7-3.4-7.7-7.7s3.4-7.7,7.7-7.7s7.7,3.4,7.7,7.7S29.2,44,25,44z M35.9,20.4H7.3V5.4h28.6V20.4z"/>
<rect x="27.8" y="7.9" class="st3" width="4" height="10.1"/>
</svg>
