<?xml version="1.0" encoding="utf-8"?>
<!-- Generator: Adobe Illustrator 24.0.2, SVG Export Plug-In . SVG Version: 6.00 Build 0)  -->
<svg version="1.1" id="Layer_1" xmlns="http://www.w3.org/2000/svg" xmlns:xlink="http://www.w3.org/1999/xlink" x="0px" y="0px"
	 viewBox="0 0 30 30" style="enable-background:new 0 0 30 30;" xml:space="preserve">
<style type="text/css">
	.st0{display:none;}
	.st1{display:inline;}
	.st2{display:none;fill:none;stroke:#FFFFFF;stroke-miterlimit:10;}
</style>
<g class="st0">
	<path class="st1" d="M22,0h5.1C28.7,0,30,1.3,30,2.9V8"/>
</g>
<rect x="22" class="st2" width="8" height="8"/>
<g>
	<path d="M22,0H2.9C1.3,0,0,1.3,0,2.9v24.2C0,28.7,1.3,30,2.9,30h24.2c1.6,0,2.9-1.3,2.9-2.9V8L22,0z M15,26.4
		c-2.5,0-4.6-2.1-4.6-4.6s2.1-4.6,4.6-4.6s4.6,2.1,4.6,4.6S17.5,26.4,15,26.4z M21.5,12.2H4.4v-9h17.2V12.2z"/>
</g>
<rect x="16.7" y="4.7" width="2.4" height="6"/>
</svg>
