<?xml version="1.0" encoding="utf-8"?>
<!-- Generator: Adobe Illustrator 24.3.0, SVG Export Plug-In . SVG Version: 6.00 Build 0)  -->
<svg version="1.1" id="Layer_2_1_" xmlns="http://www.w3.org/2000/svg" xmlns:xlink="http://www.w3.org/1999/xlink" x="0px" y="0px"
	 viewBox="0 0 30 30" style="enable-background:new 0 0 30 30;" xml:space="preserve">
<style type="text/css">
	.st0{fill:#FFFFFF;stroke:#000000;stroke-linecap:round;stroke-miterlimit:10;}
</style>
<line class="st0" x1="15.5" y1="6" x2="14.4" y2="6.9"/>
<line class="st0" x1="7.4" y1="6.1" x2="6.4" y2="5"/>
<line class="st0" x1="6.6" y1="13.2" x2="5.7" y2="14"/>
<line class="st0" x1="5.5" y1="9.5" x2="5.2" y2="9.4"/>
<line class="st0" x1="11.2" y1="4.9" x2="11.1" y2="5.1"/>
<line class="st0" x1="10.1" y1="15" x2="10.1" y2="15.2"/>
<line class="st0" x1="15.4" y1="10.5" x2="15.6" y2="10.5"/>
<path d="M9.6,9.8c-0.1-0.7,0.6-1.1,1-0.8c0.4,0.2,2.2,1.2,3.5,1.9c0.1-0.5,0.1-0.9,0.1-1.4C13.9,7.4,12,6,9.9,6.3
	c-2.1,0.3-3.5,2.2-3.2,4.2c0.3,1.9,2,3.3,3.9,3.2C10.3,12.7,9.7,10.6,9.6,9.8z"/>
<polygon points="16.3,27.3 11.6,11.3 26.1,19.2 19.2,20.7 "/>
</svg>
