<?xml version="1.0" encoding="utf-8"?>
<!-- Generator: Adobe Illustrator 24.0.2, SVG Export Plug-In . SVG Version: 6.00 Build 0)  -->
<svg version="1.1" id="Layer_2" xmlns="http://www.w3.org/2000/svg" xmlns:xlink="http://www.w3.org/1999/xlink" x="0px" y="0px"
	 viewBox="0 0 30 30" style="enable-background:new 0 0 30 30;" xml:space="preserve">
<style type="text/css">
	.st0{display:none;}
</style>
<path d="M10.1,13.6c0,0,3.9,0,5,0c10.7,0,10.1,10.9,10.1,10.9S28.7,9,15,9c-1.3,0-5,0-5,0l0-3.5l-5.8,5.8l5.8,5.8L10.1,13.6z"/>
<path class="st0" d="M20.2,16.8L26,11l-5.8-5.8l0,3.5c0,0-3.6,0-4.9,0C1.7,8.7,5.2,24.2,5.2,24.2S4.6,13.3,15.2,13.3
	c1.1,0,4.9,0,4.9,0V16.8z"/>
</svg>
