<?xml version="1.0" encoding="utf-8"?>
<!-- Generator: Adobe Illustrator 24.0.0, SVG Export Plug-In . SVG Version: 6.00 Build 0)  -->
<svg version="1.1" id="Layer_2_1_" xmlns="http://www.w3.org/2000/svg" xmlns:xlink="http://www.w3.org/1999/xlink" x="0px" y="0px"
	 viewBox="0 0 25 25" style="enable-background:new 0 0 25 25;" xml:space="preserve">
<style type="text/css">
	.st0{fill:#FFFFFF;}
	.st1{fill:none;stroke:#FFFFFF;stroke-width:3;stroke-miterlimit:10;}
</style>
<path class="st0" d="M3.9,11.5v10.8c0,1.2,0.9,2.2,1.9,2.2h13.6c1.1,0,1.9-1,1.9-2.2V11.5H3.9z M13.6,17.6v3.5h-1.9v-3.5
	c-0.6-0.3-1-0.9-1-1.7c0-1.1,0.9-1.9,1.9-1.9c1.1,0,1.9,0.9,1.9,1.9C14.6,16.7,14.2,17.3,13.6,17.6z"/>
<path id="open" class="st1" d="M8.5,3.1C10,1.8,12,1.2,13.9,1.7c3.3,0.8,5.2,4.6,4.3,8.4"/>
</svg>
