<?xml version="1.0" encoding="utf-8"?>
<!-- Generator: Adobe Illustrator 24.0.0, SVG Export Plug-In . SVG Version: 6.00 Build 0)  -->
<svg version="1.1" id="Layer_2" xmlns="http://www.w3.org/2000/svg" xmlns:xlink="http://www.w3.org/1999/xlink" x="0px" y="0px"
	 viewBox="0 0 30 30" style="enable-background:new 0 0 30 30;" xml:space="preserve">
<style type="text/css">
	.st0{display:none;}
	.st1{display:inline;}
	.st2{display:inline;fill:none;stroke:#000000;stroke-width:10;stroke-linecap:round;stroke-miterlimit:10;}
</style>
<g class="st0">
	<path class="st1" d="M34.52-70.55v10c2.62,0,5.27,0.27,7.86,0.8c10.19,2.09,18.96,8.02,24.7,16.71s7.74,19.08,5.65,29.27
		C69.03,4.28,53,17.38,34.62,17.38c-2.62,0-5.27-0.27-7.87-0.8C5.7,12.26-7.91-8.36-3.6-29.41c3.7-18.05,19.73-31.15,38.11-31.15
		L34.52-70.55 M34.51-70.55c-22.76,0-43.16,15.97-47.91,39.14C-18.82-4.93-1.75,20.94,24.74,26.37c3.32,0.68,6.62,1.01,9.88,1.01
		c22.76,0,43.16-15.97,47.91-39.14c5.43-26.49-11.65-52.36-38.13-57.78C41.07-70.23,37.77-70.55,34.51-70.55L34.51-70.55z"/>
</g>
<g class="st0">
	<line class="st2" x1="52.97" y1="19.28" x2="83.56" y2="79.95"/>
</g>
<polygon points="18.1,12.26 6.45,12.26 6.46,17.73 18.11,17.73 18.1,21.9 25,15 18.1,8.1 "/>
</svg>
