<?xml version="1.0" encoding="utf-8"?>
<!-- Generator: Adobe Illustrator 24.0.0, SVG Export Plug-In . SVG Version: 6.00 Build 0)  -->
<svg version="1.1" id="Layer_2" xmlns="http://www.w3.org/2000/svg" xmlns:xlink="http://www.w3.org/1999/xlink" x="0px" y="0px"
	 viewBox="0 0 200 200" style="enable-background:new 0 0 200 200;" xml:space="preserve">
<style type="text/css">
	.st0{display:none;}
	.st1{display:inline;}
	.st2{display:inline;fill:none;stroke:#000000;stroke-width:10;stroke-linecap:round;stroke-miterlimit:10;}
</style>
<g class="st0">
	<path class="st1" d="M119.52,14.45v10c2.62,0,5.27,0.27,7.86,0.8c10.19,2.09,18.96,8.02,24.7,16.71s7.74,19.08,5.65,29.27
		c-3.7,18.05-19.73,31.15-38.11,31.15c-2.62,0-5.27-0.27-7.87-0.8C90.7,97.26,77.09,76.64,81.4,55.59
		c3.7-18.05,19.73-31.15,38.11-31.15L119.52,14.45 M119.51,14.45c-22.76,0-43.16,15.97-47.91,39.14
		c-5.43,26.49,11.65,52.36,38.13,57.78c3.32,0.68,6.62,1.01,9.88,1.01c22.76,0,43.16-15.97,47.91-39.14
		c5.43-26.49-11.65-52.36-38.13-57.78C126.07,14.77,122.77,14.45,119.51,14.45L119.51,14.45z"/>
</g>
<g class="st0">
	<line class="st2" x1="137.97" y1="104.28" x2="168.56" y2="164.95"/>
</g>
<polygon points="83.86,122.64 163.36,122.64 163.28,85.28 83.78,85.28 83.86,56.79 36.72,103.92 83.86,151.06 "/>
</svg>
